<svg xmlns="http://www.w3.org/2000/svg" xmlns:xlink="http://www.w3.org/1999/xlink" width="500" zoomAndPan="magnify" viewBox="0 0 375 374.999991" height="500" preserveAspectRatio="xMidYMid meet" version="1.0"><defs><g/><clipPath id="id1"><path d="M 247 210 L 247.382812 210 L 247.382812 210.28125 L 247 210.28125 Z M 247 210 " clip-rule="nonzero"/></clipPath><clipPath id="id2"><path d="M 226.417969 210 L 227.355469 210 L 227.355469 210.28125 L 226.417969 210.28125 Z M 226.417969 210 " clip-rule="nonzero"/></clipPath><clipPath id="id3"><path d="M 223.285156 210 L 223.914062 210 L 223.914062 210.28125 L 223.285156 210.28125 Z M 223.285156 210 " clip-rule="nonzero"/></clipPath><clipPath id="id4"><path d="M 224.226562 210 L 224.851562 210 L 224.851562 210.28125 L 224.226562 210.28125 Z M 224.226562 210 " clip-rule="nonzero"/></clipPath><clipPath id="id5"><path d="M 237 208.074219 L 238 208.074219 L 238 209 L 237 209 Z M 237 208.074219 " clip-rule="nonzero"/></clipPath><clipPath id="id6"><path d="M 229 208.074219 L 233 208.074219 L 233 209 L 229 209 Z M 229 208.074219 " clip-rule="nonzero"/></clipPath><clipPath id="id7"><path d="M 250 208.074219 L 251 208.074219 L 251 209 L 250 209 Z M 250 208.074219 " clip-rule="nonzero"/></clipPath><clipPath id="id8"><path d="M 237 208.074219 L 238 208.074219 L 238 209 L 237 209 Z M 237 208.074219 " clip-rule="nonzero"/></clipPath><clipPath id="id9"><path d="M 118.445312 210 L 119 210 L 119 210.28125 L 118.445312 210.28125 Z M 118.445312 210 " clip-rule="nonzero"/></clipPath><clipPath id="id10"><path d="M 112.5 208.109375 L 262.5 208.109375 L 262.5 210.28125 L 112.5 210.28125 Z M 112.5 208.109375 " clip-rule="nonzero"/></clipPath><clipPath id="id11"><path d="M 235 208.074219 L 237 208.074219 L 237 209 L 235 209 Z M 235 208.074219 " clip-rule="nonzero"/></clipPath><clipPath id="id12"><path d="M 238 208.074219 L 256 208.074219 L 256 209 L 238 209 Z M 238 208.074219 " clip-rule="nonzero"/></clipPath><clipPath id="id13"><path d="M 232 208.074219 L 236 208.074219 L 236 209 L 232 209 Z M 232 208.074219 " clip-rule="nonzero"/></clipPath><clipPath id="id14"><path d="M 112.5 168 L 133.5 168 L 133.5 206.964844 L 112.5 206.964844 Z M 112.5 168 " clip-rule="nonzero"/></clipPath><clipPath id="id15"><path d="M 241.742188 168 L 262.496094 168 L 262.496094 206.964844 L 241.742188 206.964844 Z M 241.742188 168 " clip-rule="nonzero"/></clipPath></defs><g clip-path="url(#id1)"><path fill="#d9d9d9" d="M 247.070312 210.28125 L 247.261719 210.28125 C 247.265625 210.273438 247.292969 210.265625 247.324219 210.257812 C 247.175781 210.234375 247.15625 210.261719 247.070312 210.28125 " fill-opacity="1" fill-rule="evenodd"/></g><g clip-path="url(#id2)"><path fill="#d9d9d9" d="M 226.582031 210.28125 L 227.179688 210.28125 C 227.183594 210.28125 227.183594 210.28125 227.1875 210.277344 C 227.011719 210.261719 226.824219 210.296875 226.65625 210.261719 C 226.621094 210.269531 226.597656 210.273438 226.582031 210.28125 " fill-opacity="1" fill-rule="evenodd"/></g><g clip-path="url(#id3)"><path fill="#d9d9d9" d="M 223.449219 210.28125 L 223.757812 210.28125 C 223.636719 210.269531 223.527344 210.265625 223.449219 210.28125 " fill-opacity="1" fill-rule="evenodd"/></g><g clip-path="url(#id4)"><path fill="#d9d9d9" d="M 224.4375 210.28125 L 224.65625 210.28125 C 224.597656 210.277344 224.535156 210.277344 224.453125 210.273438 C 224.445312 210.273438 224.441406 210.277344 224.4375 210.28125 " fill-opacity="1" fill-rule="evenodd"/></g><g clip-path="url(#id5)"><path fill="#d9d9d9" d="M 237.550781 208.113281 L 237.242188 208.113281 C 237.261719 208.121094 237.269531 208.128906 237.25 208.148438 C 237.347656 208.148438 237.449219 208.128906 237.550781 208.113281 " fill-opacity="1" fill-rule="evenodd"/></g><g clip-path="url(#id6)"><path fill="#d9d9d9" d="M 229.722656 208.15625 C 230.355469 208.109375 231.378906 208.167969 232.160156 208.183594 C 232.328125 208.160156 232.175781 208.132812 232.273438 208.113281 L 230.527344 208.113281 C 230.519531 208.113281 230.515625 208.117188 230.511719 208.117188 C 230.5 208.113281 230.492188 208.113281 230.480469 208.113281 L 229.011719 208.113281 C 229.25 208.121094 229.488281 208.132812 229.722656 208.15625 " fill-opacity="1" fill-rule="evenodd"/></g><g clip-path="url(#id7)"><path fill="#d9d9d9" d="M 250.742188 208.117188 C 250.746094 208.117188 250.753906 208.113281 250.757812 208.113281 L 250.699219 208.113281 C 250.714844 208.117188 250.726562 208.113281 250.742188 208.117188 " fill-opacity="1" fill-rule="evenodd"/></g><g clip-path="url(#id8)"><path fill="#d9d9d9" d="M 237.683594 208.164062 C 237.835938 208.199219 237.976562 208.144531 237.941406 208.113281 L 237.917969 208.113281 C 237.902344 208.128906 237.722656 208.144531 237.683594 208.164062 " fill-opacity="1" fill-rule="evenodd"/></g><g clip-path="url(#id9)"><path fill="#d9d9d9" d="M 118.917969 210.214844 C 118.75 210.214844 118.417969 210.234375 118.457031 210.28125 L 118.597656 210.28125 C 118.707031 210.261719 118.847656 210.238281 118.917969 210.214844 " fill-opacity="1" fill-rule="evenodd"/></g><g clip-path="url(#id10)"><path fill="#d9d9d9" d="M 260.652344 209.59375 C 260.753906 209.613281 260.710938 209.578125 260.804688 209.5625 C 260.9375 209.636719 261.105469 209.527344 261.238281 209.601562 C 261.058594 209.664062 260.648438 209.636719 260.652344 209.59375 Z M 253.835938 209.226562 C 253.96875 209.222656 254.105469 209.1875 254.230469 209.230469 C 254.007812 209.289062 253.863281 209.230469 253.835938 209.226562 Z M 247.910156 209.554688 C 248.070312 209.558594 248.242188 209.519531 248.394531 209.558594 C 248.253906 209.589844 247.867188 209.613281 247.910156 209.554688 Z M 247.1875 208.777344 C 247.210938 208.730469 247.519531 208.734375 247.675781 208.78125 C 247.503906 208.828125 247.34375 208.796875 247.1875 208.777344 Z M 247.566406 210.027344 C 247.523438 210.019531 247.257812 210.023438 247.367188 210.046875 C 247.535156 210.035156 247.695312 210.042969 247.851562 210.078125 C 247.710938 210.117188 247.589844 210.085938 247.464844 210.046875 C 247.304688 210.082031 247.027344 210.058594 247.007812 210.125 C 246.703125 210.070312 246.300781 210.179688 246.140625 210.066406 C 246.101562 210.136719 245.765625 210.132812 245.597656 210.097656 C 246.070312 210.085938 246 210.003906 246.457031 209.953125 C 246.628906 210.050781 246.636719 209.945312 246.734375 210.027344 C 246.984375 210.011719 247.496094 209.96875 247.566406 210.027344 Z M 248.203125 210.023438 C 248.277344 210.078125 247.917969 210.074219 248.085938 210.113281 C 247.984375 210.132812 247.886719 210.144531 247.789062 210.132812 C 248.015625 210.097656 247.890625 209.984375 248.203125 210.023438 Z M 244.714844 210.109375 C 244.636719 210.089844 244.5625 210.070312 244.484375 210.046875 C 244.289062 210.050781 244.078125 210.121094 243.894531 210.066406 C 243.996094 209.992188 244.449219 209.984375 244.6875 210.003906 C 244.644531 209.988281 244.714844 209.984375 244.792969 209.984375 C 244.628906 209.976562 244.476562 209.925781 244.3125 209.929688 C 244.054688 209.996094 243.800781 210.042969 243.570312 209.980469 C 243.960938 209.984375 243.867188 209.933594 244.023438 209.902344 C 244.019531 209.964844 244.214844 209.929688 244.320312 209.882812 C 244.449219 209.890625 244.5 209.902344 244.507812 209.933594 C 244.859375 209.878906 245.183594 209.964844 245.539062 209.910156 C 245.691406 209.941406 245.503906 210.011719 245.777344 209.949219 C 245.9375 209.984375 245.925781 210.078125 245.660156 210.039062 C 245.714844 210.023438 245.765625 210.007812 245.667969 209.992188 C 245.609375 210.125 245.046875 210.078125 244.714844 210.109375 Z M 243.671875 210.203125 C 243.816406 210.210938 244.222656 210.199219 244.199219 210.242188 C 244.050781 210.242188 243.644531 210.261719 243.671875 210.203125 Z M 243.355469 208.625 C 243.542969 208.59375 243.714844 208.613281 243.890625 208.644531 C 243.703125 208.691406 243.535156 208.640625 243.355469 208.625 Z M 242.777344 210.019531 C 242.847656 210.003906 242.917969 209.988281 242.984375 209.972656 C 243.105469 210.023438 243.234375 210.023438 243.375 209.976562 C 243.421875 209.988281 243.46875 210 243.515625 210.011719 C 243.261719 210.054688 243.023438 210.023438 242.777344 210.019531 Z M 246.351562 208.800781 C 246.164062 208.769531 245.957031 208.8125 245.773438 208.746094 C 245.945312 208.71875 246.359375 208.746094 246.351562 208.800781 Z M 241.964844 209.949219 C 242.132812 209.917969 242.292969 209.929688 242.445312 209.976562 C 242.277344 210.003906 242.125 209.964844 241.964844 209.949219 Z M 241.851562 210.019531 C 241.773438 209.996094 241.695312 209.976562 241.621094 209.957031 C 241.28125 210.007812 241.207031 209.960938 240.832031 209.996094 C 240.933594 209.972656 240.769531 209.949219 240.941406 209.925781 C 241.128906 209.972656 241.328125 209.949219 241.527344 209.933594 C 241.457031 209.894531 241.445312 209.855469 241.648438 209.820312 C 241.792969 209.835938 241.9375 209.84375 242.074219 209.882812 C 241.921875 209.917969 241.78125 209.886719 241.625 209.933594 C 241.699219 209.984375 242.074219 209.960938 242.097656 210.007812 C 242.015625 210 241.9375 210 241.851562 210.019531 Z M 240.304688 209.929688 C 240.511719 209.960938 240.5 209.882812 240.746094 209.925781 C 240.621094 209.972656 240.25 209.996094 240.304688 209.929688 Z M 242.378906 208.640625 C 242.363281 208.6875 242.078125 208.695312 241.933594 208.667969 C 241.949219 208.609375 242.226562 208.628906 242.378906 208.640625 Z M 239.359375 208.582031 C 239.214844 208.566406 239.058594 208.609375 238.921875 208.5625 C 239.054688 208.484375 239.554688 208.59375 239.359375 208.582031 Z M 239.234375 209.917969 C 239.003906 209.925781 238.78125 209.902344 238.554688 209.886719 C 238.769531 209.839844 239.355469 209.832031 239.234375 209.917969 Z M 238.0625 209.90625 C 238.148438 209.859375 238.316406 209.847656 238.511719 209.875 C 238.355469 209.894531 238.210938 209.898438 238.0625 209.90625 Z M 237.472656 210.167969 C 237.628906 210.207031 237.804688 210.128906 237.960938 210.171875 C 237.816406 210.207031 237.433594 210.226562 237.472656 210.167969 Z M 237.375 209.917969 C 237.289062 209.941406 237.210938 209.9375 237.128906 209.929688 C 237.300781 209.894531 237.464844 209.882812 237.621094 209.910156 C 237.539062 209.925781 237.449219 209.957031 237.371094 209.941406 C 237.398438 209.9375 237.425781 209.929688 237.375 209.917969 Z M 236.5 208.464844 C 236.765625 208.4375 237.015625 208.492188 237.28125 208.476562 C 237.175781 208.550781 236.738281 208.496094 236.5 208.464844 Z M 237.542969 209.816406 C 237.636719 209.84375 237.742188 209.800781 237.832031 209.84375 C 237.78125 209.855469 237.730469 209.867188 237.675781 209.878906 C 237.554688 209.847656 237.4375 209.859375 237.542969 209.816406 Z M 234.257812 210.105469 C 234.703125 210.105469 234.902344 210.109375 235.28125 210.128906 C 234.933594 210.164062 234.59375 210.148438 234.257812 210.105469 Z M 233.699219 209.738281 C 233.480469 209.699219 233.765625 209.636719 233.90625 209.695312 C 233.761719 209.722656 233.878906 209.734375 233.699219 209.738281 Z M 232.105469 210.125 C 231.925781 210.089844 231.855469 210.054688 232.078125 210.019531 C 232.226562 210.03125 232.265625 210.09375 232.503906 210.085938 C 232.363281 210.140625 232.242188 210.085938 232.105469 210.125 Z M 227.917969 210.054688 C 228.117188 210.027344 228.3125 210.03125 228.503906 210.0625 C 228.300781 210.089844 228.105469 210.085938 227.917969 210.054688 Z M 226.925781 209.648438 C 227.070312 209.597656 227.277344 209.621094 227.28125 209.570312 C 227.316406 209.578125 227.34375 209.585938 227.378906 209.59375 C 227.410156 209.589844 227.445312 209.582031 227.476562 209.59375 C 227.378906 209.648438 227.132812 209.683594 226.925781 209.648438 Z M 219.601562 210.097656 C 219.382812 210.066406 219.667969 209.996094 219.8125 210.03125 C 219.667969 210.054688 219.785156 210.078125 219.601562 210.097656 Z M 216.328125 210.097656 C 216.542969 210.011719 216.710938 210.140625 216.917969 210.078125 C 216.796875 210.050781 216.675781 210.0625 216.785156 210.019531 C 217 210.019531 216.898438 210.070312 217.109375 210.105469 C 217.332031 210.046875 217.523438 210.140625 217.75 210.078125 C 217.621094 210.066406 217.488281 210.078125 217.367188 210.027344 C 217.472656 209.996094 217.566406 210.023438 217.671875 209.984375 C 217.84375 210 217.613281 210.074219 217.851562 210.054688 C 218 210.03125 217.710938 210 217.917969 209.972656 C 218.015625 209.96875 218.113281 209.980469 218.207031 210 C 218.1875 210.035156 217.980469 210.066406 218.039062 210.105469 C 218.152344 210.097656 218.261719 210.125 218.371094 210.144531 C 217.6875 210.148438 217 210.15625 216.328125 210.097656 Z M 215.800781 210.054688 C 215.847656 210.003906 216.09375 210.046875 216.058594 209.976562 C 216.296875 210.011719 215.941406 210.089844 215.800781 210.054688 Z M 215.261719 210.058594 C 215.269531 210.007812 215.515625 210.027344 215.671875 209.972656 C 215.71875 209.984375 215.761719 209.996094 215.808594 210.007812 C 215.621094 210.042969 215.433594 210.097656 215.261719 210.058594 Z M 212.578125 210.039062 C 212.738281 210 212.761719 209.914062 213.03125 209.964844 C 212.878906 210.011719 212.769531 210.046875 213.058594 210.070312 C 212.894531 210.09375 212.734375 210.078125 212.578125 210.039062 Z M 209.597656 210.042969 C 209.507812 210.003906 209.410156 210 209.304688 210.039062 C 209.125 209.964844 209.644531 209.886719 209.914062 209.929688 C 209.617188 209.972656 209.632812 209.976562 209.597656 210.042969 Z M 140.148438 208.179688 C 140.207031 208.152344 140.257812 208.128906 140.355469 208.132812 C 140.300781 208.148438 140.371094 208.164062 140.441406 208.179688 C 140.339844 208.207031 140.242188 208.207031 140.148438 208.179688 Z M 124.304688 209.917969 C 124.054688 209.972656 123.542969 210.019531 123.152344 210.054688 C 123.003906 210.011719 123.121094 209.976562 123.273438 209.9375 C 123.507812 209.910156 123.851562 209.917969 124.21875 209.867188 C 124.265625 209.882812 124.355469 209.902344 124.304688 209.917969 Z M 121.832031 210.050781 C 121.753906 210.027344 121.710938 210.003906 121.75 209.980469 C 122.078125 209.972656 122.414062 209.933594 122.734375 209.945312 C 122.433594 209.988281 122.136719 210.007812 121.832031 210.050781 Z M 120.347656 210.148438 C 120.777344 210.089844 121.148438 210.070312 121.363281 209.976562 C 121.421875 209.992188 121.484375 210.007812 121.546875 210.023438 C 121.25 210.046875 120.894531 210.199219 120.347656 210.148438 Z M 116.746094 210.085938 C 116.605469 210.054688 116.773438 210.023438 116.765625 209.992188 C 116.875 210.011719 116.992188 209.984375 117.097656 210.03125 C 116.980469 210.058594 116.871094 210.042969 116.746094 210.085938 Z M 262.511719 209.59375 C 262.507812 209.527344 262.269531 209.546875 262.167969 209.601562 C 261.949219 209.566406 262.394531 209.53125 262.082031 209.53125 C 262.238281 209.496094 262.582031 209.488281 262.347656 209.429688 C 262.207031 209.425781 262.152344 209.453125 262.289062 209.484375 C 262.21875 209.496094 262.160156 209.472656 262.097656 209.460938 C 261.90625 209.484375 261.957031 209.511719 261.835938 209.539062 C 261.546875 209.535156 261.257812 209.511719 260.953125 209.550781 C 260.621094 209.429688 260.242188 209.53125 259.890625 209.492188 C 259.929688 209.398438 260.445312 209.464844 260.5 209.382812 C 259.953125 209.414062 259.640625 209.328125 259.03125 209.414062 C 258.890625 209.359375 258.804688 209.316406 258.546875 209.382812 C 258.425781 209.332031 258.5 209.277344 258.71875 209.257812 C 258.644531 209.226562 258.554688 209.261719 258.476562 209.242188 C 258.566406 209.285156 258.246094 209.320312 258.453125 209.359375 C 258.125 209.296875 257.765625 209.378906 257.425781 209.359375 C 257.882812 209.316406 258.175781 209.269531 258.277344 209.265625 C 258.148438 209.179688 257.554688 209.292969 257.242188 209.3125 C 257.230469 209.25 256.890625 209.265625 256.714844 209.269531 C 256.667969 209.285156 256.769531 209.300781 256.703125 209.316406 C 256.652344 209.324219 256.605469 209.316406 256.554688 209.328125 C 256.539062 209.304688 256.625 209.289062 256.515625 209.269531 C 256.113281 209.261719 255.695312 209.304688 255.289062 209.3125 C 255.257812 209.300781 255.292969 209.289062 255.246094 209.277344 C 255.683594 209.257812 255.832031 209.21875 256.238281 209.195312 C 255.910156 209.136719 255.558594 209.179688 255.222656 209.148438 C 255.097656 209.1875 255.371094 209.164062 255.40625 209.195312 C 255.320312 209.226562 255.242188 209.21875 255.15625 209.230469 C 254.9375 209.191406 255.109375 209.136719 254.882812 209.132812 C 254.785156 209.152344 254.832031 209.171875 254.726562 209.1875 C 254.773438 209.199219 254.824219 209.183594 254.875 209.179688 C 254.980469 209.207031 254.9375 209.300781 255.058594 209.226562 C 255.335938 209.292969 254.988281 209.316406 254.800781 209.304688 C 255.050781 209.273438 254.527344 209.261719 254.71875 209.210938 C 254.59375 209.1875 254.449219 209.269531 254.320312 209.253906 C 254.1875 209.207031 254.539062 209.179688 254.679688 209.175781 C 254.804688 209.148438 254.570312 209.113281 254.699219 209.082031 C 254.523438 209.050781 254.335938 209.105469 254.164062 209.066406 C 254.183594 209.015625 254.367188 209.03125 254.476562 208.976562 C 254.3125 208.90625 254.113281 208.996094 253.945312 208.933594 C 253.851562 208.976562 254.164062 208.957031 254.222656 209.007812 C 254.078125 209.003906 253.929688 209.011719 253.789062 208.992188 C 253.996094 209.039062 253.875 209.066406 253.8125 209.121094 C 253.761719 209.125 253.714844 209.117188 253.664062 209.128906 C 253.449219 209.105469 253.792969 209.085938 253.578125 209.058594 C 253.351562 209.132812 252.222656 209.0625 252.324219 208.976562 C 252.1875 209.015625 252.023438 208.992188 252.019531 209.039062 C 251.769531 209.003906 251.945312 208.96875 251.796875 208.933594 C 252.039062 208.949219 252.292969 208.902344 252.53125 208.929688 C 252.394531 208.878906 251.828125 208.863281 251.515625 208.882812 C 251.421875 208.859375 251.59375 208.839844 251.429688 208.8125 C 251.214844 208.847656 250.996094 208.882812 250.695312 208.816406 C 250.65625 208.875 250.453125 208.863281 250.574219 208.929688 C 250.4375 208.878906 250.242188 208.953125 249.996094 208.902344 C 250.121094 208.988281 249.589844 208.933594 249.585938 208.988281 C 249.238281 208.953125 249.804688 208.921875 249.558594 208.882812 C 249.402344 208.929688 249.253906 208.929688 249.113281 208.914062 C 249.101562 208.886719 249.15625 208.859375 249.175781 208.835938 C 249.683594 208.808594 250.164062 208.859375 250.554688 208.804688 C 250.449219 208.757812 250.320312 208.828125 250.21875 208.765625 C 249.558594 208.890625 248.964844 208.675781 248.3125 208.777344 C 247.714844 208.652344 246.558594 208.765625 246.285156 208.636719 C 246.09375 208.625 245.898438 208.621094 245.707031 208.605469 C 245.585938 208.695312 245.261719 208.628906 245.015625 208.644531 C 245 208.625 245.082031 208.609375 244.976562 208.585938 C 244.949219 208.648438 244.597656 208.644531 244.632812 208.59375 C 244.082031 208.660156 243.566406 208.550781 243.023438 208.585938 C 243.171875 208.621094 242.894531 208.640625 242.8125 208.65625 C 242.730469 208.628906 243.027344 208.605469 242.976562 208.574219 C 242.53125 208.511719 242.0625 208.582031 241.605469 208.582031 C 241.636719 208.496094 241.089844 208.484375 240.980469 208.539062 C 240.890625 208.496094 240.789062 208.523438 240.695312 208.492188 C 240.429688 208.617188 239.460938 208.421875 238.882812 208.527344 C 238.476562 208.394531 237.644531 208.597656 237.332031 208.464844 C 237.472656 208.476562 237.625 208.460938 237.773438 208.457031 C 237.671875 208.390625 237.171875 208.476562 236.796875 208.445312 C 236.644531 208.433594 236.101562 208.355469 236.066406 208.425781 C 235.964844 208.453125 235.878906 208.386719 235.785156 208.375 C 235.433594 208.417969 235.101562 208.375 234.75 208.421875 C 234.355469 208.375 233.488281 208.378906 232.855469 208.363281 C 228.636719 208.25 224.414062 208.167969 220.183594 208.113281 L 142.066406 208.113281 C 141.980469 208.144531 141.925781 208.183594 141.761719 208.183594 C 141.730469 208.160156 141.691406 208.136719 141.699219 208.113281 L 141.605469 208.113281 C 141.625 208.113281 141.648438 208.113281 141.675781 208.113281 C 141.632812 208.144531 141.539062 208.226562 141.320312 208.191406 C 141.664062 208.132812 141.242188 208.144531 141.199219 208.113281 L 140.820312 208.113281 C 140.738281 208.140625 140.695312 208.144531 140.585938 208.195312 C 140.492188 208.167969 140.511719 208.140625 140.519531 208.113281 L 139.148438 208.113281 C 138.671875 208.121094 138.1875 208.144531 137.695312 208.21875 C 137.261719 208.203125 136.550781 208.253906 136.257812 208.332031 C 135.308594 208.28125 133.65625 208.574219 132.429688 208.402344 C 132.726562 208.550781 131.695312 208.484375 131.753906 208.617188 C 131.496094 208.605469 131.207031 208.738281 130.964844 208.652344 C 129.910156 208.78125 128.882812 208.789062 127.878906 208.675781 C 127.746094 208.714844 127.597656 208.75 127.660156 208.789062 C 127.496094 208.804688 127.335938 208.785156 127.183594 208.738281 C 127.027344 208.792969 126.886719 208.765625 126.738281 208.769531 C 126.667969 208.832031 126.53125 208.824219 126.421875 208.882812 C 126.511719 208.910156 126.621094 208.863281 126.714844 208.882812 C 126.0625 208.964844 125.003906 208.960938 124.230469 208.84375 C 124.128906 208.929688 123.847656 208.945312 123.527344 208.929688 C 122.90625 209.101562 122.105469 209.191406 121.3125 209.253906 C 121.21875 209.230469 121.128906 209.203125 121.035156 209.179688 C 121.109375 209.253906 120.597656 209.234375 120.378906 209.277344 C 120.363281 209.261719 120.339844 209.246094 120.390625 209.230469 C 119.683594 209.261719 119.023438 209.277344 118.453125 209.382812 C 117.710938 209.40625 116.714844 209.441406 116.117188 209.578125 C 115.613281 209.566406 114.679688 209.699219 114.273438 209.753906 C 113.605469 209.839844 113.007812 209.910156 112.5 210.027344 L 112.5 210.039062 C 112.636719 210.046875 112.648438 210.078125 112.734375 210.109375 C 112.652344 210.128906 112.578125 210.132812 112.5 210.132812 L 112.5 210.15625 C 112.632812 210.15625 112.71875 210.144531 112.816406 210.179688 C 113.0625 210.097656 113.46875 210.214844 113.5625 210.128906 C 113.679688 210.109375 113.777344 210.175781 113.890625 210.191406 C 114.203125 210.175781 114.511719 210.167969 114.824219 210.167969 C 114.582031 210.214844 114.449219 210.226562 114.1875 210.28125 L 115.609375 210.28125 C 116.433594 210.253906 117.308594 210.214844 118.105469 210.125 C 118.238281 210.109375 118.367188 210.125 118.492188 210.152344 C 118.503906 210.132812 118.484375 210.113281 118.453125 210.09375 C 118.601562 210.09375 118.75 210.074219 118.902344 210.0625 C 119.105469 210.171875 119.679688 210 119.953125 209.925781 C 120.089844 209.964844 119.878906 210 119.734375 210.039062 C 119.871094 210.023438 120.078125 210.058594 120.066406 210.101562 C 119.816406 210.148438 119.777344 210.105469 119.609375 210.175781 C 119.71875 210.210938 119.851562 210.101562 119.953125 210.167969 C 120.136719 210.148438 120.019531 210.125 120.164062 210.101562 C 120.230469 210.097656 120.292969 210.09375 120.359375 210.101562 C 120.351562 210.144531 120.136719 210.179688 120.140625 210.21875 C 120.089844 210.226562 120.042969 210.214844 119.988281 210.226562 C 120.109375 210.15625 119.6875 210.210938 119.503906 210.222656 C 119.414062 210.203125 119.46875 210.183594 119.367188 210.160156 C 119.097656 210.183594 118.960938 210.238281 118.800781 210.28125 L 223.308594 210.28125 C 223.277344 210.261719 223.273438 210.242188 223.144531 210.222656 C 222.996094 210.234375 222.839844 210.285156 222.703125 210.226562 C 222.457031 210.347656 221.871094 210.191406 221.472656 210.273438 C 221.515625 210.25 221.300781 210.222656 221.390625 210.203125 C 221.140625 210.222656 220.886719 210.261719 220.660156 210.179688 C 220.558594 210.210938 220.457031 210.222656 220.359375 210.222656 C 220.347656 210.207031 220.335938 210.191406 220.269531 210.175781 C 220.21875 210.214844 219.953125 210.210938 220.074219 210.171875 C 219.917969 210.207031 219.664062 210.195312 219.394531 210.167969 C 219.445312 210.21875 219.316406 210.21875 219.136719 210.222656 C 219.089844 210.207031 219.191406 210.191406 219.242188 210.175781 C 219.003906 210.15625 218.757812 210.175781 218.515625 210.15625 C 218.714844 210.101562 218.765625 210.171875 218.867188 210.101562 C 218.726562 210.089844 218.582031 210.070312 218.433594 210.085938 C 218.386719 210.066406 218.519531 210.046875 218.589844 210.027344 C 218.769531 210.03125 218.933594 210.109375 219.125 210.046875 C 218.90625 210.058594 219.015625 209.964844 218.796875 209.984375 C 218.742188 209.929688 218.929688 209.929688 219.101562 209.917969 C 219.183594 209.945312 219.058594 209.972656 219.035156 210 C 219.21875 210.03125 219.296875 209.972656 219.390625 209.945312 C 219.550781 209.949219 219.71875 209.929688 219.871094 209.972656 C 219.511719 209.957031 219.589844 210.042969 219.324219 210.023438 C 219.226562 210.066406 219.632812 210.046875 219.308594 210.097656 C 219.117188 210.132812 219.363281 210.023438 219.171875 210.058594 C 218.90625 210.105469 219.136719 210.085938 219.253906 210.128906 C 219.1875 210.132812 219.121094 210.136719 219.058594 210.128906 C 219.261719 210.171875 219.90625 210.113281 220.277344 210.152344 C 220.1875 210.085938 220.460938 210.140625 220.484375 210.085938 C 220.257812 210.085938 220.027344 210.089844 219.792969 210.125 C 219.703125 209.96875 220.496094 210.023438 220.75 209.984375 C 221.097656 210.046875 220.746094 210.101562 220.957031 210.160156 C 220.988281 210.085938 221.277344 210.183594 221.453125 210.121094 C 221.300781 210.128906 220.875 210.097656 221.03125 210.035156 C 221.289062 210.113281 221.292969 209.996094 221.664062 210.054688 C 221.855469 210.089844 221.597656 210.121094 221.789062 210.160156 C 221.875 210.140625 221.957031 210.121094 222.042969 210.101562 C 221.972656 210.085938 221.902344 210.070312 221.957031 210.054688 C 222.421875 210.003906 222.875 210.03125 223.335938 210 C 223.199219 209.945312 223.046875 209.984375 222.902344 209.960938 C 223.183594 209.925781 223.679688 209.902344 223.777344 209.996094 C 223.648438 209.984375 223.515625 209.996094 223.378906 210.035156 C 223.3125 210.082031 223.609375 210.054688 223.511719 210.097656 C 223.820312 210.089844 224.097656 210 224.292969 210.105469 C 224.414062 210.058594 224.523438 210.089844 224.636719 210.097656 C 224.636719 210.078125 224.746094 210.058594 224.695312 210.042969 C 225.046875 210.085938 225.679688 210.007812 225.859375 210.101562 C 226.070312 210.097656 226.28125 210.078125 226.496094 210.074219 C 226.503906 210.09375 226.476562 210.113281 226.4375 210.132812 C 226.617188 210.15625 226.574219 210.089844 226.691406 210.074219 C 226.882812 210.117188 226.757812 210.15625 226.667969 210.191406 C 226.886719 210.214844 227.167969 210.191406 227.238281 210.269531 C 227.3125 210.222656 227.136719 210.171875 227.363281 210.128906 C 227.066406 210.089844 227.234375 210.230469 226.867188 210.171875 C 226.8125 210.125 226.894531 210.097656 227.082031 210.082031 C 227.460938 210.0625 227.8125 210.179688 228.191406 210.152344 C 228.320312 210.21875 228.023438 210.1875 227.882812 210.21875 C 228.039062 210.253906 228.210938 210.214844 228.378906 210.199219 C 228.367188 210.183594 228.355469 210.167969 228.289062 210.152344 C 228.417969 210.140625 228.460938 210.179688 228.488281 210.132812 C 228.753906 210.183594 229.058594 210.0625 229.3125 210.175781 C 229.351562 210.125 229.761719 210.121094 229.796875 210.183594 C 229.976562 210.085938 230.4375 210.09375 230.734375 210.132812 C 230.832031 210.121094 230.78125 210.101562 230.84375 210.089844 C 231.089844 210.132812 231.378906 210.097656 231.363281 210.175781 C 231.480469 210.148438 231.601562 210.125 231.71875 210.097656 C 232.046875 210.140625 231.605469 210.175781 231.792969 210.214844 C 232.015625 210.171875 232.222656 210.183594 232.429688 210.210938 C 232.46875 210.171875 232.675781 210.136719 232.746094 210.097656 C 232.871094 210.148438 232.496094 210.191406 232.71875 210.238281 C 232.742188 210.125 233.367188 210.136719 233.65625 210.191406 C 233.910156 210.171875 233.894531 210.101562 234.15625 210.128906 C 234.136719 210.167969 233.945312 210.214844 234.242188 210.199219 C 234.277344 210.226562 234.1875 210.253906 234.0625 210.28125 L 234.273438 210.28125 C 234.285156 210.265625 234.296875 210.25 234.378906 210.234375 C 234.546875 210.214844 234.585938 210.246094 234.660156 210.28125 L 234.792969 210.28125 C 234.765625 210.261719 234.675781 210.238281 234.578125 210.214844 C 234.789062 210.226562 234.773438 210.175781 235.015625 210.230469 C 235.238281 210.210938 234.90625 210.183594 235.128906 210.160156 C 235.328125 210.222656 235.789062 210.210938 236.140625 210.230469 C 236.207031 210.203125 235.859375 210.191406 235.753906 210.203125 C 235.707031 210.113281 236.183594 210.128906 236.398438 210.152344 C 236.535156 210.210938 236.058594 210.152344 236.195312 210.195312 C 236.433594 210.261719 236.394531 210.160156 236.636719 210.191406 C 236.34375 210.292969 237.285156 210.195312 237.636719 210.28125 L 237.742188 210.28125 C 237.894531 210.242188 238.210938 210.21875 238.449219 210.175781 C 238.402344 210.277344 239.210938 210.199219 239.328125 210.164062 C 239.398438 210.179688 239.472656 210.195312 239.417969 210.210938 C 239.503906 210.175781 239.699219 210.21875 239.914062 210.171875 C 240.054688 210.257812 240.253906 210.175781 240.601562 210.15625 C 240.667969 210.183594 240.539062 210.207031 240.730469 210.238281 C 241.351562 210.183594 241.667969 210.242188 242.300781 210.210938 C 242.367188 210.242188 242.238281 210.265625 242.4375 210.269531 C 242.460938 210.183594 242.722656 210.226562 242.875 210.28125 L 242.910156 210.28125 C 242.886719 210.21875 243.179688 210.183594 243.425781 210.210938 C 243.496094 210.269531 243.117188 210.207031 243.167969 210.265625 C 243.199219 210.277344 243.234375 210.277344 243.269531 210.28125 L 243.4375 210.28125 C 243.445312 210.261719 243.417969 210.246094 243.5625 210.25 C 243.597656 210.261719 243.542969 210.269531 243.511719 210.28125 L 243.894531 210.28125 C 243.898438 210.277344 243.90625 210.269531 243.902344 210.261719 C 244.003906 210.253906 244.019531 210.265625 244.019531 210.28125 L 244.179688 210.28125 C 244.25 210.257812 244.394531 210.246094 244.542969 210.238281 C 244.605469 210.292969 244.675781 210.261719 244.796875 210.28125 L 244.886719 210.28125 C 244.941406 210.25 245.148438 210.257812 245.269531 210.277344 C 245.269531 210.28125 245.265625 210.28125 245.265625 210.28125 L 245.929688 210.28125 C 245.957031 210.273438 245.976562 210.261719 245.960938 210.242188 C 246.132812 210.273438 246.332031 210.171875 246.503906 210.210938 C 246.613281 210.257812 246.414062 210.25 246.265625 210.28125 L 246.777344 210.28125 C 246.96875 210.191406 247.503906 210.25 247.675781 210.226562 C 247.660156 210.253906 247.558594 210.269531 247.464844 210.28125 L 247.980469 210.28125 C 247.941406 210.273438 247.902344 210.261719 247.863281 210.25 C 247.964844 210.222656 248.066406 210.210938 248.160156 210.230469 C 248 210.246094 248.128906 210.265625 248.128906 210.28125 L 248.65625 210.28125 C 248.675781 210.28125 248.6875 210.28125 248.703125 210.28125 L 249.804688 210.28125 C 249.917969 210.265625 250.019531 210.273438 250.097656 210.28125 L 250.210938 210.28125 C 250.234375 210.277344 250.253906 210.265625 250.257812 210.242188 C 250.316406 210.257812 250.320312 210.269531 250.308594 210.28125 L 250.800781 210.28125 C 250.832031 210.277344 250.859375 210.273438 250.890625 210.261719 C 250.15625 210.195312 249.40625 210.183594 248.660156 210.167969 C 248.449219 210.140625 248.792969 210.121094 248.578125 210.097656 C 248.394531 210.09375 248.445312 210.121094 248.324219 210.152344 C 248.136719 210.101562 248.460938 210.058594 248.644531 210.015625 C 249.058594 210.023438 249.507812 210.132812 250.050781 210.066406 C 250.195312 210.066406 250.335938 210.113281 250.484375 210.105469 C 250.355469 210.054688 250.394531 210.058594 250.683594 210.085938 C 250.855469 210.0625 250.695312 210.039062 250.792969 210.015625 C 251.144531 210.109375 251.242188 210.042969 251.570312 210.046875 C 251.703125 210.074219 251.578125 210.097656 251.75 210.121094 C 251.738281 210.070312 251.898438 210.039062 252.101562 210.066406 C 252.234375 210.089844 251.84375 210.109375 252.089844 210.136719 C 252.160156 210.113281 252.222656 210.125 252.285156 210.136719 C 252.292969 210.121094 252.351562 210.101562 252.441406 210.082031 C 252.859375 210.113281 253.0625 210.125 253.398438 210.1875 C 253.5 210.089844 253.714844 210.214844 253.941406 210.160156 C 254.035156 210.203125 253.753906 210.171875 253.6875 210.214844 C 253.867188 210.214844 254.046875 210.203125 254.21875 210.230469 C 254.320312 210.222656 254.429688 210.160156 254.523438 210.1875 C 254.472656 210.125 254.53125 210.132812 254.785156 210.085938 C 254.410156 210.097656 254.269531 210.019531 253.960938 210.066406 C 253.789062 210.011719 254.085938 210.023438 253.929688 209.984375 C 253.722656 210.015625 253.703125 210.050781 253.761719 210.085938 C 253.644531 210.101562 253.53125 210.089844 253.414062 210.117188 C 253.414062 210.039062 253.09375 210.074219 252.929688 210.089844 C 252.816406 210.035156 253.144531 210.046875 253.195312 209.988281 C 253.011719 209.972656 252.996094 209.996094 252.894531 210.03125 C 252.835938 210.011719 252.699219 209.960938 252.417969 209.953125 C 252.417969 209.984375 252.242188 210.011719 252.109375 210.042969 C 252.054688 210.003906 252.136719 209.964844 251.9375 209.925781 C 251.800781 209.957031 251.675781 209.917969 251.546875 209.921875 C 251.605469 209.894531 251.492188 209.867188 251.515625 209.839844 C 250.988281 209.855469 250.476562 209.828125 249.960938 209.796875 C 249.652344 209.867188 249.378906 209.761719 249.078125 209.8125 C 248.585938 209.683594 247.8125 209.867188 247.484375 209.710938 C 247.378906 209.753906 247.285156 209.722656 247.183594 209.753906 C 247.0625 209.707031 246.933594 209.707031 246.808594 209.679688 C 247.011719 209.652344 247.164062 209.703125 247.257812 209.625 C 247.164062 209.6875 247.371094 209.65625 247.539062 209.675781 C 247.671875 209.628906 247.480469 209.640625 247.355469 209.628906 C 247.59375 209.574219 247.816406 209.609375 248.042969 209.613281 C 248.125 209.636719 247.8125 209.648438 247.746094 209.632812 C 247.816406 209.695312 248.328125 209.636719 248.570312 209.652344 C 248.46875 209.605469 248.34375 209.660156 248.238281 209.613281 C 248.683594 209.636719 248.863281 209.578125 249.273438 209.570312 C 249.414062 209.597656 248.941406 209.617188 249.207031 209.648438 C 249.273438 209.636719 249.34375 209.621094 249.414062 209.605469 C 249.832031 209.65625 250.339844 209.625 250.636719 209.582031 C 250.347656 209.648438 250.816406 209.632812 251.066406 209.648438 C 251.097656 209.617188 251.226562 209.589844 251.027344 209.589844 C 251.382812 209.503906 251.410156 209.640625 251.714844 209.574219 C 251.847656 209.609375 251.769531 209.644531 251.742188 209.679688 C 251.875 209.699219 252.101562 209.621094 252.101562 209.601562 C 252.308594 209.574219 252.671875 209.683594 252.734375 209.597656 C 252.824219 209.597656 253.144531 209.632812 253.066406 209.660156 C 253.261719 209.605469 253.804688 209.597656 254.242188 209.648438 C 253.980469 209.671875 254.011719 209.664062 253.785156 209.726562 C 253.941406 209.753906 254.101562 209.773438 254.257812 209.800781 C 254.40625 209.789062 254.125 209.71875 254.320312 209.742188 C 254.417969 209.683594 254.097656 209.742188 254.027344 209.742188 C 253.996094 209.664062 254.578125 209.617188 254.816406 209.703125 C 255.140625 209.710938 255.496094 209.5625 255.804688 209.644531 C 255.875 209.628906 255.941406 209.613281 256.011719 209.601562 C 256.171875 209.625 255.992188 209.648438 255.996094 209.667969 C 256.1875 209.691406 256.398438 209.601562 256.585938 209.652344 C 256.679688 209.699219 256.394531 209.683594 256.332031 209.707031 C 256.882812 209.683594 257.402344 209.640625 257.742188 209.734375 C 257.90625 209.734375 258.066406 209.746094 258.238281 209.695312 C 258.128906 209.675781 258.101562 209.65625 258.199219 209.636719 C 258.386719 209.695312 258.929688 209.625 259.265625 209.695312 C 259.144531 209.722656 259.023438 209.75 258.914062 209.726562 C 259.007812 209.765625 259.523438 209.773438 259.785156 209.785156 C 260.019531 209.726562 259.613281 209.78125 259.550781 209.722656 C 259.722656 209.683594 259.878906 209.722656 260.046875 209.683594 C 260.015625 209.660156 260.019531 209.640625 260.109375 209.625 C 259.988281 209.589844 259.929688 209.617188 259.925781 209.574219 C 259.988281 209.574219 260.054688 209.570312 260.125 209.554688 C 260.355469 209.644531 260.429688 209.621094 260.734375 209.664062 C 260.5625 209.722656 260.417969 209.628906 260.242188 209.683594 C 260.347656 209.730469 260.46875 209.699219 260.574219 209.746094 C 260.480469 209.699219 260.9375 209.664062 261.125 209.671875 C 261.171875 209.6875 261.074219 209.699219 261.019531 209.714844 C 261.136719 209.773438 261.277344 209.722656 261.398438 209.765625 C 261.488281 209.746094 261.273438 209.71875 261.316406 209.695312 C 261.664062 209.660156 261.996094 209.722656 262.34375 209.695312 C 262.355469 209.636719 262.09375 209.703125 261.957031 209.667969 C 261.929688 209.65625 261.960938 209.644531 261.914062 209.632812 C 262.160156 209.660156 262.234375 209.613281 262.511719 209.59375 " fill-opacity="1" fill-rule="evenodd"/></g><g clip-path="url(#id11)"><path fill="#d9d9d9" d="M 236.34375 208.277344 C 236.429688 208.253906 236.214844 208.230469 236.257812 208.207031 C 236.3125 208.195312 236.355469 208.214844 236.402344 208.21875 C 236.484375 208.191406 236.4375 208.175781 236.316406 208.171875 C 236.492188 208.128906 236.664062 208.128906 236.835938 208.113281 L 235.789062 208.113281 C 235.914062 208.140625 236.046875 208.125 236.175781 208.136719 C 236.207031 208.195312 235.855469 208.121094 235.730469 208.164062 C 236.03125 208.246094 235.589844 208.195312 235.476562 208.222656 C 235.933594 208.308594 235.902344 208.214844 236.34375 208.277344 " fill-opacity="1" fill-rule="evenodd"/></g><g clip-path="url(#id12)"><path fill="#d9d9d9" d="M 238.375 208.128906 C 238.429688 208.152344 238.257812 208.171875 238.460938 208.199219 C 238.695312 208.109375 239.449219 208.097656 239.4375 208.1875 C 239.652344 208.179688 239.855469 208.222656 240.078125 208.15625 C 240.328125 208.253906 240.742188 208.148438 240.847656 208.238281 C 241.128906 208.101562 241.734375 208.320312 242.171875 208.214844 C 242.570312 208.25 242.984375 208.21875 243.382812 208.265625 C 243.511719 208.300781 243.132812 208.265625 243.371094 208.3125 C 244.042969 208.210938 244.664062 208.367188 245.328125 208.3125 C 245.25 208.289062 245.164062 208.300781 245.089844 208.273438 C 245.054688 208.257812 245.160156 208.242188 245.097656 208.226562 C 245.390625 208.242188 245.671875 208.300781 245.964844 208.308594 C 246.019531 208.277344 245.886719 208.285156 245.824219 208.269531 C 245.746094 208.226562 246.042969 208.28125 246.125 208.226562 C 246.136719 208.257812 246.183594 208.269531 246.3125 208.277344 C 246.585938 208.144531 247.078125 208.332031 247.492188 208.242188 C 247.660156 208.277344 247.652344 208.308594 247.472656 208.335938 C 247.59375 208.378906 247.730469 208.339844 247.855469 208.363281 C 247.910156 208.34375 247.78125 208.324219 247.722656 208.304688 C 247.863281 208.257812 247.988281 208.269531 248.121094 208.261719 C 248.191406 208.285156 248.140625 208.308594 248.011719 208.332031 C 248.359375 208.289062 248.695312 208.332031 249.035156 208.332031 C 249.085938 208.355469 248.914062 208.375 249.117188 208.402344 C 249.335938 208.285156 250.359375 208.378906 250.699219 208.328125 C 250.796875 208.386719 251.191406 208.375 250.875 208.421875 C 251.082031 208.4375 251.105469 208.40625 251.128906 208.367188 C 251.335938 208.363281 251.367188 208.480469 251.65625 208.429688 C 251.566406 208.390625 251.457031 208.429688 251.367188 208.402344 C 251.433594 208.394531 251.449219 208.382812 251.421875 208.371094 C 251.910156 208.378906 252.382812 208.453125 252.890625 208.363281 C 252.863281 208.429688 252.90625 208.421875 253.0625 208.480469 C 253.21875 208.449219 253.023438 208.410156 252.9375 208.375 C 253.214844 208.285156 253.445312 208.441406 253.71875 208.363281 C 254.011719 208.410156 253.582031 208.445312 253.742188 208.492188 C 253.929688 208.449219 253.839844 208.40625 253.914062 208.363281 C 254.109375 208.324219 254.101562 208.410156 254.203125 208.390625 C 254.25 208.410156 254.113281 208.429688 254.046875 208.445312 C 254.214844 208.464844 254.484375 208.433594 254.398438 208.390625 C 254.726562 208.476562 254.730469 208.402344 254.964844 208.492188 C 255.292969 208.449219 255.320312 208.46875 255.648438 208.5 C 255.695312 208.46875 255.523438 208.4375 255.765625 208.410156 C 255.6875 208.386719 255.609375 208.367188 255.53125 208.347656 C 255.355469 208.34375 255.433594 208.40625 255.238281 208.34375 C 255.132812 208.359375 255.179688 208.375 255.230469 208.390625 C 254.929688 208.382812 253.984375 208.398438 254.175781 208.285156 C 254.085938 208.257812 253.972656 208.320312 253.875 208.328125 C 253.714844 208.28125 253.855469 208.242188 254.042969 208.226562 C 253.945312 208.210938 253.445312 208.210938 253.640625 208.269531 C 253.425781 208.285156 253.226562 208.230469 253 208.296875 C 252.917969 208.269531 253.214844 208.242188 253.164062 208.214844 C 253.003906 208.167969 252.488281 208.25 252.640625 208.152344 C 252.519531 208.121094 252.460938 208.1875 252.535156 208.199219 C 252.355469 208.199219 252.175781 208.191406 252.003906 208.15625 C 251.953125 208.175781 252.003906 208.195312 251.941406 208.214844 C 251.824219 208.234375 251.71875 208.203125 251.597656 208.222656 C 251.59375 208.203125 251.621094 208.183594 251.660156 208.164062 C 251.226562 208.207031 250.808594 208.199219 250.386719 208.171875 C 250.28125 208.140625 250.539062 208.167969 250.59375 208.128906 C 250.484375 208.101562 250.371094 208.125 250.261719 208.113281 L 249.433594 208.113281 C 249.429688 208.113281 249.425781 208.113281 249.421875 208.113281 C 249.417969 208.113281 249.414062 208.113281 249.410156 208.113281 L 238.113281 208.113281 C 238.199219 208.125 238.285156 208.148438 238.375 208.128906 " fill-opacity="1" fill-rule="evenodd"/></g><g clip-path="url(#id13)"><path fill="#d9d9d9" d="M 232.507812 208.113281 C 232.339844 208.226562 233.117188 208.171875 233.375 208.207031 C 233.476562 208.144531 233.15625 208.195312 233.09375 208.15625 C 233.015625 208.109375 233.320312 208.125 233.394531 208.117188 C 233.695312 208.269531 234.363281 208.183594 234.835938 208.25 C 235.023438 208.222656 234.804688 208.191406 234.996094 208.167969 C 235.0625 208.160156 235.121094 208.1875 235.191406 208.171875 C 235.238281 208.191406 235.101562 208.210938 235.035156 208.226562 C 235.171875 208.257812 235.320312 208.261719 235.476562 208.222656 C 235.484375 208.199219 235.320312 208.171875 235.488281 208.152344 C 235.394531 208.128906 235.289062 208.167969 235.199219 208.125 C 235.234375 208.117188 235.265625 208.113281 235.296875 208.113281 L 234.84375 208.113281 C 234.714844 208.144531 234.589844 208.140625 234.46875 208.128906 C 234.5 208.121094 234.535156 208.117188 234.566406 208.113281 L 232.507812 208.113281 " fill-opacity="1" fill-rule="evenodd"/></g><g clip-path="url(#id14)"><path fill="#d9d9d9" d="M 133.46875 179.996094 C 133.40625 181.050781 132.476562 181.820312 131.398438 181.488281 C 130.859375 181.320312 130.382812 181.050781 129.988281 180.65625 C 129.457031 180.121094 128.828125 179.710938 128.253906 179.230469 C 127.640625 178.71875 127.121094 178.125 126.621094 177.511719 C 125.734375 176.421875 124.820312 175.359375 123.886719 174.304688 C 123.144531 173.46875 122.375 172.648438 121.8125 171.671875 C 121.515625 171.160156 121.449219 170.582031 121.285156 170.03125 C 121.195312 169.726562 121.328125 169.417969 121.511719 169.164062 C 122.019531 168.46875 122.644531 167.964844 123.613281 168.027344 C 124.25 167.972656 124.820312 168.238281 125.363281 168.5625 C 126.582031 169.289062 127.566406 170.273438 128.484375 171.335938 C 129.292969 172.277344 130.117188 173.207031 130.78125 174.257812 C 131.664062 175.65625 132.535156 177.0625 133.121094 178.625 C 133.289062 179.078125 133.496094 179.492188 133.46875 179.996094 Z M 125.851562 186.683594 C 125.367188 186.5 124.859375 186.386719 124.402344 186.128906 C 123.210938 185.449219 121.976562 184.863281 120.683594 184.402344 C 119.789062 184.085938 118.863281 183.867188 117.933594 183.671875 C 116.859375 183.445312 115.78125 183.375 114.695312 183.660156 C 112.925781 184.125 112.5 185.777344 112.863281 187.125 C 113.023438 187.726562 113.5625 187.933594 114.082031 188.136719 C 115.078125 188.523438 116.136719 188.644531 117.164062 188.894531 C 118.515625 189.222656 119.859375 189.582031 121.222656 189.863281 C 122.210938 190.070312 123.195312 190.199219 124.136719 190.238281 C 124.65625 190.214844 125.121094 190.207031 125.539062 190.402344 C 126.082031 190.65625 127.125 190.339844 127.535156 189.78125 C 127.746094 189.496094 127.902344 189.183594 127.816406 188.804688 C 127.570312 187.726562 126.867188 187.066406 125.851562 186.683594 Z M 126.261719 198.4375 C 126.25 198.277344 126.09375 198.1875 126.03125 198.046875 C 125.839844 197.613281 125.382812 197.425781 124.960938 197.632812 C 124.535156 197.84375 124.113281 198.066406 123.710938 198.316406 C 121.8125 199.503906 120.265625 201.085938 118.792969 202.734375 C 118.207031 203.390625 117.703125 204.109375 117.53125 205.007812 C 117.398438 205.71875 117.664062 206.304688 118.308594 206.640625 C 118.703125 206.84375 119.128906 206.878906 119.554688 206.914062 C 120.117188 206.964844 120.582031 206.765625 120.964844 206.339844 C 121.28125 205.984375 121.546875 205.597656 121.820312 205.214844 C 122.316406 204.523438 122.984375 203.980469 123.476562 203.296875 C 124.296875 202.160156 125.074219 200.992188 125.894531 199.855469 C 126.113281 199.550781 126.335938 199.214844 126.265625 198.765625 C 126.265625 198.675781 126.273438 198.554688 126.261719 198.4375 Z M 127.894531 182.472656 C 126.910156 182.050781 126.089844 181.335938 125.085938 180.945312 C 124.53125 180.730469 124 180.445312 123.367188 180.515625 C 122.886719 180.464844 122.4375 180.542969 122.148438 180.984375 C 121.824219 181.472656 121.90625 181.953125 122.40625 182.445312 C 123.5 183.519531 124.839844 184.164062 126.304688 184.582031 C 126.550781 184.652344 126.804688 184.6875 127.042969 184.769531 C 127.355469 184.875 127.660156 184.832031 127.921875 184.6875 C 128.511719 184.359375 128.5625 183.882812 128.410156 183.199219 C 128.347656 182.90625 128.207031 182.605469 127.894531 182.472656 Z M 121.554688 196.871094 C 122.335938 196.871094 123.003906 196.714844 123.757812 196.359375 C 124.179688 196.160156 124.605469 195.988281 125.054688 195.863281 C 125.847656 195.640625 126.226562 194.773438 125.863281 194.0625 C 125.832031 194.007812 125.8125 193.941406 125.804688 193.878906 C 125.75 193.347656 125.386719 193.070312 124.878906 193.210938 C 123.964844 193.464844 123.019531 193.527344 122.082031 193.65625 C 121.386719 193.75 120.707031 193.914062 120.214844 194.46875 C 119.972656 194.746094 119.765625 195.054688 119.820312 195.441406 C 119.929688 196.21875 120.734375 196.871094 121.554688 196.871094 Z M 121.554688 196.871094 " fill-opacity="1" fill-rule="nonzero"/></g><g fill="#d9d9d9" fill-opacity="1"><g transform="translate(139.910707, 200.249987)"><g><path d="M 0.949219 -1.027344 L 1.101562 -0.226562 L 1.863281 0.113281 L 10.21875 0.152344 L 11.054688 0 L 11.777344 0.0390625 L 12.425781 0.152344 L 13.222656 0.0742188 L 14.019531 0.0742188 L 14.78125 -0.0390625 L 15.503906 0.113281 L 16.335938 0.0390625 L 20.175781 0.0390625 L 20.859375 -0.0390625 L 21.621094 -0.417969 L 22 -1.0625 L 21.960938 -1.824219 L 22.035156 -2.621094 L 22.035156 -4.21875 L 21.960938 -4.902344 L 21.65625 -5.625 L 20.859375 -6.003906 L 19.984375 -6.042969 L 19.1875 -6.003906 L 18.464844 -6.078125 L 14.550781 -6.117188 L 13.867188 -6.042969 L 13.070312 -6.078125 L 12.308594 -6.042969 L 11.664062 -6.421875 L 11.589844 -7.066406 L 12.042969 -7.636719 L 12.425781 -8.320312 L 12.726562 -9.117188 L 13.109375 -9.726562 L 13.488281 -10.488281 L 14.058594 -11.359375 L 15.691406 -14.4375 L 16.148438 -15.085938 L 17.289062 -17.25 L 17.628906 -17.742188 L 18.3125 -19.226562 L 18.769531 -19.871094 L 21.734375 -25.378906 L 21.46875 -26.214844 L 20.707031 -26.484375 L 19.984375 -26.558594 L 17.742188 -26.484375 L 16.753906 -26.597656 L 11.132812 -26.558594 L 10.371094 -26.671875 L 9.574219 -26.558594 L 6.609375 -26.558594 L 5.8125 -26.632812 L 5.128906 -26.558594 L 3.535156 -26.558594 L 2.8125 -26.632812 L 2.203125 -26.253906 L 1.710938 -25.457031 L 1.785156 -24.660156 L 1.746094 -21.542969 L 2.164062 -20.820312 L 3.304688 -20.515625 L 4.40625 -20.515625 L 5.167969 -20.402344 L 5.890625 -20.515625 L 10.449219 -20.480469 L 10.941406 -20.136719 L 10.867188 -19.414062 L 6.191406 -10.753906 L 5.738281 -10.070312 L 5.054688 -8.699219 L 4.597656 -8.09375 L 3.914062 -6.648438 L 3.117188 -5.394531 L 2.128906 -3.382812 L 1.632812 -2.699219 L 1.253906 -1.9375 Z M 13.261719 -7.902344 L 13.335938 -7.257812 L 14.210938 -7.257812 L 15.085938 -7.902344 L 15.730469 -9.269531 L 16.640625 -10.601562 L 18.160156 -13.679688 L 19.226562 -15.273438 L 19.984375 -16.679688 L 20.289062 -17.441406 L 20.667969 -18.046875 L 21.351562 -19.414062 L 21.808594 -20.0625 L 22.910156 -22.035156 L 23.253906 -22.949219 L 23.214844 -23.824219 L 22.339844 -23.859375 L 21.316406 -22.453125 L 21.050781 -21.734375 L 20.175781 -20.515625 L 17.289062 -15.199219 L 16.90625 -14.628906 L 15.882812 -12.539062 L 15.386719 -11.96875 L 14.78125 -10.601562 L 14.398438 -9.992188 L 14.019531 -9.195312 L 13.601562 -8.550781 Z M 4.636719 -19.148438 L 4.558594 -18.390625 L 5.394531 -17.972656 L 7.863281 -17.972656 L 8.777344 -18.351562 L 9.195312 -19.1875 L 8.625 -19.414062 L 7.863281 -19.605469 L 6.609375 -19.605469 L 5.472656 -19.492188 Z M 3.230469 1.632812 L 3.609375 2.128906 L 4.292969 2.433594 L 5.089844 2.546875 L 5.890625 2.433594 L 7.445312 2.546875 L 8.167969 2.46875 L 8.96875 2.46875 L 9.726562 2.546875 L 20.328125 2.546875 L 21.085938 2.46875 L 21.847656 2.546875 L 22.53125 2.433594 L 23.328125 2.46875 L 24.089844 2.203125 L 24.46875 1.480469 L 24.507812 0.609375 L 24.429688 -0.226562 L 24.46875 -0.910156 L 24.429688 -2.015625 L 24.050781 -3.152344 L 23.289062 -3.230469 L 22.988281 -2.46875 L 22.871094 -0.152344 L 22.53125 0.609375 L 21.847656 0.949219 L 20.367188 1.0625 L 19.605469 1.027344 L 18.882812 0.910156 L 16.527344 1.027344 L 15.882812 0.988281 L 13.640625 1.101562 L 12.878906 0.988281 L 12.082031 1.027344 L 11.359375 0.988281 L 10.5625 1.101562 L 9.765625 1.101562 L 9.082031 0.949219 L 6.839844 0.988281 L 6.078125 0.910156 L 5.320312 0.988281 L 4.597656 0.910156 L 3.800781 1.0625 Z M 3.230469 1.632812 "/></g></g></g><g fill="#d9d9d9" fill-opacity="1"><g transform="translate(163.351914, 200.249987)"><g><path d="M 8.699219 -1.140625 L 9.003906 -0.304688 L 9.800781 0 L 10.5625 0.0390625 L 11.246094 -0.0390625 L 12.425781 0.0390625 L 13.488281 -0.0390625 L 14.25 0.0390625 L 15.007812 -0.378906 L 15.3125 -1.179688 L 15.425781 -5.585938 L 15.351562 -6.34375 L 15.351562 -7.105469 L 15.464844 -7.789062 L 15.425781 -9.992188 L 15.652344 -11.09375 L 16.035156 -12.082031 L 20.859375 -20.023438 L 21.316406 -20.554688 L 23.746094 -24.582031 L 24.164062 -25.53125 L 24.011719 -26.367188 L 23.328125 -26.519531 L 21.847656 -26.558594 L 21.050781 -26.484375 L 20.289062 -26.597656 L 18.808594 -26.558594 L 18.160156 -26.597656 L 17.136719 -26.214844 L 16.453125 -25.570312 L 15.464844 -23.9375 L 15.007812 -22.796875 L 14.171875 -21.582031 L 13.792969 -20.785156 L 13.414062 -20.136719 L 12.765625 -18.695312 L 12.273438 -18.046875 L 11.855469 -18.046875 L 11.4375 -18.769531 L 11.019531 -19.378906 L 9.878906 -21.503906 L 9.460938 -22.152344 L 7.675781 -25.496094 L 6.878906 -26.214844 L 6.003906 -26.558594 L 5.207031 -26.519531 L 4.558594 -26.671875 L 2.621094 -26.519531 L 0.875 -26.632812 L 0.113281 -26.253906 L 0 -25.417969 L 0.378906 -24.542969 L 2.015625 -21.847656 L 2.433594 -21.316406 L 3.988281 -18.617188 L 4.902344 -17.402344 L 5.207031 -16.71875 L 8.132812 -12.082031 L 8.511719 -11.019531 L 8.699219 -9.992188 L 8.664062 -6.992188 L 8.738281 -6.230469 L 8.664062 -3.304688 L 8.738281 -2.582031 Z M 11.4375 -20.402344 L 11.96875 -20.023438 L 12.578125 -20.289062 L 12.652344 -21.085938 L 12.460938 -22 L 11.816406 -23.289062 L 11.054688 -23.9375 L 10.03125 -23.859375 L 9.953125 -23.175781 L 11.132812 -21.125 Z M 11.589844 1.445312 L 11.625 2.128906 L 12.273438 2.621094 L 13.753906 2.46875 L 14.550781 2.582031 L 15.996094 2.507812 L 16.71875 2.433594 L 17.515625 2.089844 L 17.894531 1.367188 L 17.78125 0.644531 L 17.933594 -1.898438 L 17.894531 -3.914062 L 17.933594 -4.558594 L 17.933594 -5.320312 L 17.859375 -5.964844 L 17.894531 -8.625 L 18.085938 -10.03125 L 18.425781 -11.019531 L 19.644531 -12.957031 L 20.328125 -14.363281 L 21.164062 -15.539062 L 21.921875 -16.90625 L 22.339844 -17.515625 L 22.988281 -18.84375 L 23.480469 -19.453125 L 24.203125 -20.746094 L 25.039062 -21.921875 L 25.304688 -22.910156 L 25.265625 -23.671875 L 24.621094 -23.632812 L 23.9375 -23.023438 L 23.519531 -22.339844 L 23.023438 -21.734375 L 20.214844 -17.210938 L 19.832031 -16.375 L 18.542969 -14.515625 L 17.820312 -13.144531 L 16.984375 -11.890625 L 16.335938 -9.6875 L 16.375 -6.800781 L 16.300781 -6.003906 L 16.375 -5.207031 L 16.375 -3 L 16.261719 -2.015625 L 16.335938 -1.214844 L 16.300781 -0.113281 L 16.035156 0.722656 L 15.234375 1.027344 L 14.515625 0.988281 L 13.753906 1.0625 L 12.957031 0.910156 L 12.308594 1.027344 Z M 11.589844 1.445312 "/></g></g></g><g fill="#d9d9d9" fill-opacity="1"><g transform="translate(187.514979, 200.249987)"><g><path d="M 9.917969 0.0742188 L 12.460938 0 L 13.5625 -0.378906 L 13.945312 -1.445312 L 14.058594 -3.417969 L 13.945312 -4.863281 L 14.019531 -5.660156 L 13.980469 -7.179688 L 14.058594 -7.863281 L 13.945312 -8.699219 L 14.019531 -14.816406 L 13.90625 -15.617188 L 14.019531 -18.921875 L 14.324219 -20.0625 L 15.046875 -20.515625 L 16.527344 -20.59375 L 17.933594 -20.402344 L 18.730469 -20.515625 L 19.414062 -20.480469 L 20.0625 -20.898438 L 20.515625 -21.734375 L 20.554688 -25.34375 L 20.136719 -26.101562 L 19.414062 -26.597656 L 17.058594 -26.597656 L 16.335938 -26.671875 L 15.539062 -26.558594 L 14.816406 -26.632812 L 11.742188 -26.484375 L 10.980469 -26.632812 L 10.257812 -26.671875 L 9.460938 -26.558594 L 8.625 -26.632812 L 7.941406 -26.484375 L 5.699219 -26.597656 L 4.519531 -26.484375 L 1.863281 -26.632812 L 1.140625 -26.253906 L 0.683594 -25.378906 L 0.722656 -24.621094 L 0.644531 -22.722656 L 0.722656 -21.542969 L 1.0625 -20.859375 L 1.746094 -20.480469 L 2.507812 -20.554688 L 6.117188 -20.480469 L 6.839844 -20.097656 L 7.257812 -19.339844 L 7.179688 -18.125 L 7.257812 -17.058594 L 7.21875 -16.222656 L 7.257812 -15.464844 L 7.179688 -14.398438 L 7.296875 -8.738281 L 7.21875 -7.980469 L 7.179688 -4.902344 L 7.257812 -4.101562 L 7.21875 -1.898438 L 7.144531 -1.179688 L 7.636719 -0.34375 L 8.738281 0.0390625 Z M 10.753906 2.582031 L 13.109375 2.546875 L 13.792969 2.46875 L 15.351562 2.546875 L 16.109375 2.128906 L 16.414062 1.328125 L 16.488281 -3.191406 L 16.414062 -3.914062 L 16.414062 -9.382812 L 16.527344 -10.070312 L 16.375 -11.890625 L 16.453125 -16.871094 L 16.71875 -17.589844 L 17.554688 -17.972656 L 18.960938 -18.007812 L 19.757812 -17.933594 L 21.921875 -18.007812 L 22.605469 -18.351562 L 22.949219 -19.113281 L 23.023438 -20.632812 L 22.871094 -22.1875 L 22.910156 -22.988281 L 22.644531 -23.671875 L 21.769531 -23.707031 L 21.429688 -22.988281 L 21.46875 -21.769531 L 21.390625 -21.085938 L 21.085938 -19.910156 L 20.289062 -19.53125 L 19.679688 -19.605469 L 18.84375 -19.453125 L 16.984375 -19.453125 L 15.996094 -19.566406 L 15.351562 -19.074219 L 14.933594 -18.464844 L 14.894531 -8.472656 L 14.96875 -7.863281 L 14.855469 -6.648438 L 14.96875 -3.988281 L 14.894531 -3.230469 L 15.007812 -0.910156 L 14.894531 -0.226562 L 14.550781 0.683594 L 13.792969 1.0625 L 11.472656 0.949219 L 10.828125 1.0625 L 10.070312 1.445312 L 9.992188 2.242188 Z M 3.496094 -19.113281 L 3.417969 -18.425781 L 4.253906 -18.046875 L 5.433594 -18.046875 L 6.230469 -18.425781 L 6.230469 -19.226562 L 5.472656 -19.644531 L 4.253906 -19.53125 Z M 3.496094 -19.113281 "/></g></g></g><g fill="#d9d9d9" fill-opacity="1"><g transform="translate(208.752637, 200.249987)"><g><path d="M 3.953125 0.113281 L 6.308594 0 L 7.371094 0.0742188 L 8.585938 -0.0390625 L 9.347656 -0.34375 L 9.765625 -1.179688 L 9.6875 -4.21875 L 9.800781 -5.015625 L 9.6875 -9.003906 L 10.105469 -9.652344 L 11.054688 -10.070312 L 12.082031 -9.992188 L 12.957031 -9.347656 L 13.335938 -8.738281 L 13.601562 -7.941406 L 15.160156 -5.394531 L 15.425781 -4.75 L 15.769531 -4.21875 L 16.488281 -2.8125 L 16.945312 -2.242188 L 17.324219 -1.519531 L 17.707031 -1.027344 L 18.425781 -0.304688 L 19.300781 0.0742188 L 23.140625 0.0390625 L 23.824219 -0.0390625 L 24.582031 0 L 25.378906 -0.191406 L 25.570312 -1.027344 L 23.214844 -5.320312 L 22.722656 -5.925781 L 21.542969 -7.863281 L 21.125 -8.398438 L 20.707031 -9.117188 L 20.402344 -9.765625 L 19.148438 -11.777344 L 18.996094 -12.652344 L 19.492188 -13.449219 L 20.667969 -14.4375 L 21.886719 -15.996094 L 22.453125 -16.984375 L 22.722656 -17.667969 L 23.367188 -19.871094 L 23.632812 -22.304688 L 23.558594 -23.0625 L 23.671875 -25.417969 L 23.328125 -26.179688 L 22.492188 -26.519531 L 21.351562 -26.632812 L 20.097656 -26.484375 L 18.960938 -26.632812 L 17.820312 -26.597656 L 17.023438 -26.140625 L 16.71875 -25.417969 L 16.71875 -24.582031 L 16.605469 -23.859375 L 16.640625 -23.101562 L 16.335938 -20.632812 L 16.109375 -20.0625 L 15.882812 -19.261719 L 15.007812 -18.046875 L 13.679688 -17.097656 L 12.996094 -16.792969 L 12.160156 -16.679688 L 11.398438 -16.453125 L 10.5625 -16.453125 L 9.917969 -16.90625 L 9.726562 -17.707031 L 9.765625 -18.425781 L 9.726562 -21.164062 L 9.652344 -21.847656 L 9.726562 -22.757812 L 9.6875 -23.9375 L 9.765625 -25.496094 L 9.269531 -26.101562 L 8.167969 -26.445312 L 6.269531 -26.632812 L 5.546875 -26.597656 L 4.789062 -26.671875 L 3.953125 -26.632812 L 3.191406 -26.140625 L 2.851562 -25.417969 L 2.773438 -24.773438 L 2.851562 -20.136719 L 2.734375 -19.378906 L 2.851562 -18.617188 L 2.773438 -13.945312 L 2.886719 -13.296875 L 2.734375 -11.742188 L 2.851562 -10.90625 L 2.8125 -9.421875 L 2.886719 -8.738281 L 2.773438 -7.179688 L 2.851562 -5.625 L 2.8125 -5.015625 L 2.886719 -4.21875 L 2.8125 -3.457031 L 2.886719 -1.519531 L 3.265625 -0.34375 Z M 11.359375 -17.289062 L 11.929688 -17.742188 L 12.234375 -18.578125 L 12.234375 -19.300781 L 12.160156 -20.097656 L 12.234375 -23.101562 L 11.855469 -23.785156 L 11.09375 -23.746094 L 10.675781 -22.570312 L 10.753906 -17.667969 Z M 24.621094 2.546875 L 25.875 2.46875 L 26.9375 2.128906 L 27.925781 1.253906 L 28.230469 0.34375 L 28.230469 -0.417969 L 28.117188 -1.40625 L 27.738281 -2.433594 L 27.242188 -3.039062 L 26.558594 -4.371094 L 26.101562 -4.863281 L 25.683594 -5.507812 L 25.304688 -6.230469 L 24.925781 -6.800781 L 24.542969 -7.5625 L 24.125 -8.09375 L 22.1875 -11.285156 L 22.152344 -12.160156 L 22.492188 -12.957031 L 23.632812 -13.980469 L 25.078125 -16.753906 L 25.835938 -19.796875 L 26.101562 -22.152344 L 26.101562 -22.988281 L 25.683594 -23.785156 L 24.960938 -23.707031 L 24.621094 -22.949219 L 24.394531 -20.667969 L 23.519531 -16.871094 L 22.796875 -15.503906 L 22.417969 -14.96875 L 21.847656 -14.363281 L 21.390625 -13.753906 L 20.820312 -13.183594 L 20.441406 -12.347656 L 20.441406 -11.4375 L 21.65625 -9.535156 L 22.035156 -8.816406 L 22.492188 -8.207031 L 25.761719 -3.039062 L 26.101562 -2.203125 L 26.558594 -1.292969 L 26.671875 -0.226562 L 26.292969 0.683594 L 25.570312 0.949219 L 23.632812 0.875 L 22.492188 1.027344 L 21.734375 0.910156 L 20.898438 0.988281 L 20.441406 1.40625 L 20.859375 2.015625 L 21.960938 2.46875 Z M 8.777344 2.46875 L 9.535156 2.355469 L 11.09375 2.46875 L 11.855469 2.015625 L 12.195312 1.214844 L 12.160156 -0.226562 L 12.273438 -0.988281 L 12.160156 -4.484375 L 12.273438 -5.8125 L 12.234375 -6.574219 L 12.539062 -8.09375 L 11.929688 -8.851562 L 10.941406 -8.929688 L 10.675781 -8.054688 L 10.675781 -4.140625 L 10.601562 -3.382812 L 10.714844 -2.621094 L 10.636719 -0.226562 L 10.257812 0.570312 L 9.574219 0.910156 L 8.738281 0.988281 L 7.980469 0.910156 L 7.257812 0.988281 L 6.460938 0.949219 L 5.699219 1.328125 L 5.625 2.089844 L 6.421875 2.433594 L 7.5625 2.394531 Z M 8.777344 2.46875 "/></g></g></g><g clip-path="url(#id15)"><path fill="#d9d9d9" d="M 241.527344 179.996094 C 241.589844 181.050781 242.519531 181.820312 243.597656 181.488281 C 244.136719 181.320312 244.613281 181.050781 245.007812 180.65625 C 245.535156 180.121094 246.164062 179.710938 246.742188 179.230469 C 247.355469 178.71875 247.871094 178.125 248.371094 177.511719 C 249.257812 176.421875 250.175781 175.359375 251.109375 174.304688 C 251.851562 173.46875 252.621094 172.648438 253.183594 171.671875 C 253.476562 171.160156 253.546875 170.582031 253.707031 170.03125 C 253.796875 169.726562 253.664062 169.417969 253.484375 169.164062 C 252.976562 168.46875 252.351562 167.964844 251.382812 168.027344 C 250.746094 167.972656 250.175781 168.238281 249.628906 168.5625 C 248.414062 169.289062 247.429688 170.273438 246.511719 171.335938 C 245.699219 172.277344 244.875 173.207031 244.214844 174.257812 C 243.328125 175.65625 242.457031 177.0625 241.875 178.625 C 241.703125 179.078125 241.5 179.492188 241.527344 179.996094 Z M 249.144531 186.683594 C 249.628906 186.5 250.132812 186.386719 250.59375 186.128906 C 251.78125 185.449219 253.019531 184.863281 254.3125 184.402344 C 255.207031 184.085938 256.132812 183.867188 257.058594 183.671875 C 258.136719 183.445312 259.210938 183.375 260.296875 183.660156 C 262.070312 184.125 262.496094 185.777344 262.132812 187.125 C 261.972656 187.726562 261.433594 187.933594 260.910156 188.136719 C 259.917969 188.523438 258.855469 188.644531 257.828125 188.894531 C 256.480469 189.222656 255.132812 189.582031 253.773438 189.863281 C 252.785156 190.070312 251.796875 190.199219 250.855469 190.238281 C 250.339844 190.214844 249.875 190.207031 249.457031 190.402344 C 248.914062 190.65625 247.871094 190.339844 247.457031 189.78125 C 247.25 189.496094 247.09375 189.183594 247.179688 188.804688 C 247.425781 187.726562 248.128906 187.066406 249.144531 186.683594 Z M 248.730469 198.4375 C 248.746094 198.277344 248.902344 198.1875 248.964844 198.046875 C 249.15625 197.613281 249.613281 197.425781 250.035156 197.632812 C 250.460938 197.84375 250.882812 198.066406 251.28125 198.316406 C 253.183594 199.503906 254.730469 201.085938 256.203125 202.734375 C 256.785156 203.390625 257.292969 204.109375 257.460938 205.007812 C 257.597656 205.71875 257.332031 206.304688 256.6875 206.640625 C 256.292969 206.84375 255.867188 206.878906 255.441406 206.914062 C 254.878906 206.964844 254.410156 206.765625 254.03125 206.339844 C 253.710938 205.984375 253.445312 205.597656 253.171875 205.214844 C 252.679688 204.523438 252.007812 203.980469 251.519531 203.296875 C 250.699219 202.160156 249.921875 200.992188 249.097656 199.855469 C 248.878906 199.550781 248.65625 199.214844 248.730469 198.765625 C 248.730469 198.675781 248.71875 198.554688 248.730469 198.4375 Z M 247.101562 182.472656 C 248.085938 182.050781 248.902344 181.335938 249.910156 180.945312 C 250.464844 180.730469 250.996094 180.445312 251.628906 180.515625 C 252.109375 180.464844 252.558594 180.542969 252.847656 180.984375 C 253.171875 181.472656 253.089844 181.953125 252.589844 182.445312 C 251.496094 183.519531 250.15625 184.164062 248.6875 184.582031 C 248.445312 184.652344 248.191406 184.6875 247.953125 184.769531 C 247.640625 184.875 247.335938 184.832031 247.074219 184.6875 C 246.484375 184.359375 246.433594 183.882812 246.582031 183.199219 C 246.648438 182.90625 246.789062 182.605469 247.101562 182.472656 Z M 253.441406 196.871094 C 252.660156 196.871094 251.992188 196.714844 251.234375 196.359375 C 250.816406 196.160156 250.390625 195.988281 249.9375 195.863281 C 249.148438 195.640625 248.769531 194.773438 249.132812 194.0625 C 249.160156 194.007812 249.183594 193.941406 249.1875 193.878906 C 249.246094 193.347656 249.609375 193.070312 250.113281 193.210938 C 251.03125 193.464844 251.976562 193.527344 252.910156 193.65625 C 253.609375 193.75 254.289062 193.914062 254.78125 194.46875 C 255.023438 194.746094 255.230469 195.054688 255.175781 195.441406 C 255.066406 196.21875 254.261719 196.871094 253.441406 196.871094 Z M 253.441406 196.871094 " fill-opacity="1" fill-rule="nonzero"/></g></svg>